<svg xmlns="http://www.w3.org/2000/svg" width="207.281" height="64.438" viewBox="0 0 207.281 64.438">
  <metadata><?xpacket begin="﻿" id="W5M0MpCehiHzreSzNTczkc9d"?>
<x:xmpmeta xmlns:x="adobe:ns:meta/" x:xmptk="Adobe XMP Core 5.6-c138 79.159824, 2016/09/14-01:09:01        ">
   <rdf:RDF xmlns:rdf="http://www.w3.org/1999/02/22-rdf-syntax-ns#">
      <rdf:Description rdf:about=""/>
   </rdf:RDF>
</x:xmpmeta>
                                                                                                    
                                                                                                    
                                                                                                    
                                                                                                    
                                                                                                    
                                                                                                    
                                                                                                    
                                                                                                    
                                                                                                    
                                                                                                    
                                                                                                    
                                                                                                    
                                                                                                    
                                                                                                    
                                                                                                    
                                                                                                    
                                                                                                    
                                                                                                    
                                                                                                    
                                                                                                    
                           
<?xpacket end="w"?></metadata>
<defs>
    <style>
      .cls-1 {
        fill: #2d2d2d;
        fill-rule: evenodd;
      }
    </style>
  </defs>
  <path id="CREDDI" class="cls-1" d="M225.267,155.351h-3.24a3.231,3.231,0,0,0-3.6,3.6v7.83c0,4.409-2.16,5.759-5.49,5.759s-5.49-1.35-5.49-5.759V132.222c0-4.41,2.16-5.76,5.49-5.76s5.49,1.35,5.49,5.76v6.3a3.231,3.231,0,0,0,3.6,3.6h3.24a3.231,3.231,0,0,0,3.6-3.6V130.6c0-9.36-6.3-13.319-15.839-13.319h-0.18c-9.54,0-15.839,3.959-15.839,13.319v37.8c0,9.809,6.3,13.319,15.839,13.319h0.18c9.54,0,15.839-3.6,15.839-13.319v-9.45A3.231,3.231,0,0,0,225.267,155.351Zm44.818,21.509-7.65-22.589c4.32-1.89,6.84-5.67,6.84-11.7v-11.25c0-9.54-6.3-13.319-15.839-13.319h-12.69a3.231,3.231,0,0,0-3.6,3.6v55.8a3.231,3.231,0,0,0,3.6,3.6h3.24a3.231,3.231,0,0,0,3.6-3.6V155.891h5.31l7.02,22.139a3.807,3.807,0,0,0,4.049,2.97h3.15C269.725,181,270.9,179.29,270.085,176.86Zm-22.5-49.678h5.49c3.42,0,5.76,1.26,5.76,5.76v8.19c0,4.5-2.34,5.759-5.76,5.759h-5.49V127.182ZM305.634,177.4v-1.98a3.231,3.231,0,0,0-3.6-3.6H288.175V153.641h10.8a3.231,3.231,0,0,0,3.6-3.6v-1.98a3.231,3.231,0,0,0-3.6-3.6h-10.8V127.182h13.589a3.231,3.231,0,0,0,3.6-3.6V121.6a3.231,3.231,0,0,0-3.6-3.6H281.335a3.231,3.231,0,0,0-3.6,3.6v55.8a3.231,3.231,0,0,0,3.6,3.6h20.7A3.231,3.231,0,0,0,305.634,177.4ZM328.4,118h-12.51a3.231,3.231,0,0,0-3.6,3.6v55.8a3.231,3.231,0,0,0,3.6,3.6H328.4c9.539,0,15.839-3.78,15.839-13.319V131.322C344.243,121.782,337.943,118,328.4,118Zm5.4,14.939v33.119c0,4.5-2.339,5.759-5.759,5.759h-5.31V127.182h5.31C331.464,127.182,333.8,128.442,333.8,132.942ZM368.993,118h-12.51a3.231,3.231,0,0,0-3.6,3.6v55.8a3.231,3.231,0,0,0,3.6,3.6h12.51c9.539,0,15.839-3.78,15.839-13.319V131.322C384.832,121.782,378.532,118,368.993,118Zm5.4,14.939v33.119c0,4.5-2.339,5.759-5.759,5.759h-5.31V127.182h5.31C372.053,127.182,374.392,128.442,374.392,132.942Zm29.88,44.458V121.6a3.231,3.231,0,0,0-3.6-3.6h-3.24a3.231,3.231,0,0,0-3.6,3.6v55.8a3.231,3.231,0,0,0,3.6,3.6h3.24A3.231,3.231,0,0,0,404.272,177.4Z" transform="translate(-197 -117.281)"/>
</svg>
